<?xml version="1.0" standalone="no"?><!DOCTYPE svg PUBLIC "-//W3C//DTD SVG 1.1//EN" "http://www.w3.org/Graphics/SVG/1.1/DTD/svg11.dtd"><svg t="1642371459319" class="icon" viewBox="0 0 1024 1024" version="1.1" xmlns="http://www.w3.org/2000/svg" p-id="1655" xmlns:xlink="http://www.w3.org/1999/xlink" width="256" height="256"><defs><style type="text/css"></style></defs><path d="M475 257s35.999-28 37-39V97s-72 148-108 192l34-10s49.999 43 74 184v-91s-20-101-37-115zM512 97v121c1.001 11 37 39 37 39-17 14-37 115-37 115v91c24.001-141 74-184 74-184l34 10C584 245 512 97 512 97z" p-id="1656" fill="#AAAAAA"></path><path d="M492.592 409.814l-42.58-18.126-0.012-0.021-0.002 0.015-0.015-0.006 0.013 0.022-5.33 45.969s59.007 56.596 67.194 60.545l0.064 0.111 0.004-0.077 0.07 0.035-0.065-0.113c0.624-9.067-19.341-88.354-19.341-88.354zM702.324 345.598s42.248 17.176 52.274 12.542l104.789-60.5s-164.171 11.646-220.276 2.47l25.66 24.445s-12.239 64.8-122.349 156.085l78.809-45.5c0 0.001 77.469-67.819 81.093-89.542zM859.389 297.641l-104.789 60.5c-9.026 6.367-15.275 51.543-15.275 51.543-20.624-7.723-118.093 25.457-118.093 25.457l-78.809 45.5c134.11-49.714 196.349-27.914 196.349-27.914l8.34 34.445c20.105-53.177 112.277-189.531 112.277-189.531z" p-id="1657" fill="#AAAAAA"></path><path d="M578.779 437.241l-5.592-45.938 0.012-0.021-0.014 0.006-0.002-0.016-0.013 0.022-42.476 18.369s-19.51 79.399-18.836 88.464l-0.063 0.111c0.021-0.009 0.047-0.024 0.068-0.035 0.002 0.024 0.002 0.055 0.005 0.078l0.065-0.113c8.165-3.995 66.846-60.927 66.846-60.927z" p-id="1658" fill="#AAAAAA"></path><path d="M739.258 586.766s6.249 45.176 15.275 51.542l104.789 60.5s-92.172-136.353-112.277-189.53l-8.34 34.445s-62.238 21.801-196.348-27.914l78.808 45.5s97.469 33.179 118.093 25.457z" p-id="1659" fill="#AAAAAA"></path><path d="M859.322 698.809L754.533 638.31c-10.026-4.634-52.275 12.542-52.275 12.542-3.624-21.722-81.093-89.543-81.093-89.543l-78.809-45.5c110.109 91.286 122.349 156.086 122.349 156.086l-25.66 24.445c56.105-9.177 220.277 2.469 220.277 2.469zM598.121 525.594l36.987-27.812h0.024l-0.012-0.009 0.013-0.01h-0.025l-37.146-27.6s-78.517 22.804-86.03 27.919l-0.128 0.001 0.064 0.042-0.065 0.043h0.131c7.541 5.073 86.187 27.426 86.187 27.426z" p-id="1660" fill="#AAAAAA"></path><path d="M548.868 739.335s-35.999 28-37 39v121s71.999-148 108-192l-34 10s-50-43-74-183.999v90.999s20 101 37 115zM511.868 899.335l-0.001-120.999c-1-11-37-39.001-37-39.001 17-13.999 37-115 37-115v-91c-24.001 141-74 184-74 184l-34-10c36 44.001 108.001 192 108.001 192z" p-id="1661" fill="#AAAAAA"></path><path d="M531.275 586.521l42.579 18.126 0.013 0.021 0.002-0.015 0.015 0.007-0.013-0.022 5.329-45.97s-59.007-56.596-67.193-60.544l-0.065-0.111c-0.002 0.022-0.002 0.053-0.003 0.077l-0.07-0.035 0.066 0.113c-0.624 9.067 19.34 88.353 19.34 88.353z" p-id="1662" fill="#AAAAAA"></path><path d="M321.544 650.737s-42.248-17.176-52.275-12.542l-104.789 60.5s164.171-11.647 220.277-2.47l-25.66-24.445s12.239-64.801 122.348-156.085l-78.808 45.499s-77.469 67.821-81.093 89.543z" p-id="1663" fill="#AAAAAA"></path><path d="M164.48 698.694l104.788-60.5c9.026-6.367 15.276-51.543 15.276-51.543 20.623 7.723 118.093-25.457 118.093-25.457l78.808-45.5c-134.11 49.714-196.349 27.914-196.349 27.914l-8.34-34.446C256.65 562.34 164.48 698.694 164.48 698.694zM445.088 559.095l5.592 45.938-0.012 0.021 0.014-0.006 0.001 0.017 0.013-0.022 42.476-18.37s19.51-79.399 18.836-88.463l0.063-0.112c-0.021 0.009-0.048 0.024-0.068 0.035l-0.004-0.078-0.065 0.114c-8.164 3.993-66.846 60.926-66.846 60.926z" p-id="1664" fill="#AAAAAA"></path><path d="M284.61 409.57s-6.25-45.176-15.276-51.542l-104.789-60.5s92.173 136.353 112.277 189.53l8.34-34.445s62.238-21.801 196.347 27.914l-78.807-45.5c0.001 0-97.468-33.179-118.092-25.457zM164.546 297.527l104.788 60.499c10.027 4.633 52.276-12.542 52.276-12.542 3.624 21.722 81.093 89.543 81.093 89.543l78.808 45.5c-110.108-91.286-122.349-156.086-122.349-156.086l25.661-24.445c-56.106 9.176-220.277-2.469-220.277-2.469z" p-id="1665" fill="#AAAAAA"></path><path d="M425.747 470.741l-36.987 27.812h-0.024l0.012 0.009-0.014 0.01h0.026l37.147 27.6s78.517-22.803 86.029-27.918l0.129-0.001-0.065-0.042c0.02-0.014 0.046-0.029 0.066-0.042h-0.132c-7.541-5.074-86.187-27.428-86.187-27.428z" p-id="1666" fill="#AAAAAA"></path></svg>