<?xml version="1.0" standalone="no"?><!DOCTYPE svg PUBLIC "-//W3C//DTD SVG 1.1//EN" "http://www.w3.org/Graphics/SVG/1.1/DTD/svg11.dtd"><svg t="1642371482661" class="icon" viewBox="0 0 1024 1024" version="1.1" xmlns="http://www.w3.org/2000/svg" p-id="1839" xmlns:xlink="http://www.w3.org/1999/xlink" width="256" height="256"><defs><style type="text/css"></style></defs><path d="M512 123S364 228 255 362c0 0 31 109 65 164 0 0 126.999-138 192-153 0 0 65 52 79 103 0 0-83 77-91 84 0 0 14 21 31 38 0 0 109-77 135-114 0 0-56.001-111-154-205 0 0-137 113-165 140 0 0 6.999-92 165-253 0 0 196 207 284 457 0 0 52-62.334 80-111 0 0-123-224-364-389z" p-id="1840" fill="#AAAAAA"></path><path d="M512 651s-65-52-79-103c0 0 83-77 91-84 0 0-14-21-31-38 0 0-109 77-135 114 0 0 56.001 111 154 205 0 0 137-113 165-140 0 0-6.999 92-165 253 0 0-196-207-284-457 0 0-52 62.334-80 111 0 0 123 224 364 389 0 0 148-105 257-239 0 0-31-109-65-164 0 0-126.999 138-192 153z" p-id="1841" fill="#AAAAAA"></path></svg>