<?xml version="1.0" standalone="no"?><!DOCTYPE svg PUBLIC "-//W3C//DTD SVG 1.1//EN" "http://www.w3.org/Graphics/SVG/1.1/DTD/svg11.dtd"><svg t="1642371487240" class="icon" viewBox="0 0 1024 1024" version="1.1" xmlns="http://www.w3.org/2000/svg" p-id="2019" xmlns:xlink="http://www.w3.org/1999/xlink" width="256" height="256"><defs><style type="text/css"></style></defs><path d="M506.482 707.444s-60.077-91.746 14.887-164.088l0.082 0.273s61.361-56.949 118.21-28.747c56.849 28.203 39.907 81.545 28.884 105.973 0 0 106.062-30.37 129.396-145.455 0 0 13.834-61.294-12.812-149.81 0 0 49.431 22.38 105.318 136.246 0 0-17.828-155.785-146.725-252.528 0 0-105.854-81.322-231.335-76.981 0 0 260.969 111.988 171.63 286.729 0 0-49.416 97.901-149.548 69.152l0.196-0.208s-80-24.666-84-87.999 50.667-75.333 77.333-78c0 0-79.333-76.667-190.667-39.333 0 0-60 18.667-123.333 86 0 0-5.333-53.998 65.333-159.332 0 0-126 93.332-145.333 253.332 0 0-17.5 132.332 49 238.832 0 0-33.5-282 162.5-292 0 0 109.491-6.154 134.66 94.936l-0.277-0.066s18.639 81.615-34.209 116.746c-52.849 35.131-90.574-6.212-106.217-27.972 0 0-26.729 107.037 61.27 184.788 0 0 46.166 42.628 136.145 63.81 0 0-44.098 31.618-170.652 23.085 0 0 143.828 62.453 292.059-0.803 0 0 123.354-51.011 182.335-161.852 0 0.001-227.469 170.013-334.13 5.272z" p-id="2020"></path></svg>