<?xml version="1.0" standalone="no"?><!DOCTYPE svg PUBLIC "-//W3C//DTD SVG 1.1//EN" "http://www.w3.org/Graphics/SVG/1.1/DTD/svg11.dtd"><svg t="1642371490059" class="icon" viewBox="0 0 1024 1024" version="1.1" xmlns="http://www.w3.org/2000/svg" p-id="2194" xmlns:xlink="http://www.w3.org/1999/xlink" width="256" height="256"><defs><style type="text/css"></style></defs><path d="M889.071 478.092c-3-118.494-116.404-325.425-347.071-340.758S181.5 300 175 340.5s23.5 53.597 23.5 53.597c30 20.597 62.103 0 62.103 0 117.269-159.239 271.372-135.428 271.372-135.428 294.641 37.333 284.692 307.998 284.692 307.998C815.334 752 652.5 830 652.5 830 809 730.5 772 568 772 568c-45-230-260-221.333-260-221.333-78.667 2-108.333 25-108.333 25C374 394 386 427 386 427c11 45 58 36 58 36 49-19 87.975-10 87.975-10C725.949 486 714 664.667 714 664.667 691.333 852.668 512 854 512 854c-95.333 9.333-219.898-59.424-219.898-59.424 37.498 92.995 239.473 94.495 239.473 94.495 392.464-53.997 357.496-410.979 357.496-410.979z" p-id="2195"></path><path d="M498 644s36.5-4 45.5 49.5c0 0 16 45.5 65.5 29.5 0 0 37-9.5 28-71.5 0 0-19-87.5-125-92 0 0-114.5-5.961-136.5 124.77 0 0-6 133.23 136.5 144.73 0 0 69.5-1 108-55.5 0 0 8.833-10.334 7.5-14 0 0 0.5-3-6.5 2.5s-25.5 48.5-109 47c0 0-71-3-88.5-81 0 0-9.5-80 74.5-84z" p-id="2196"></path><path d="M189 518.735m-53 0a53 53 0 1 0 106 0 53 53 0 1 0-106 0Z" p-id="2197"></path><path d="M257 684m-37 0a37 37 0 1 0 74 0 37 37 0 1 0-74 0Z" p-id="2198"></path></svg>