<?xml version="1.0" standalone="no"?><!DOCTYPE svg PUBLIC "-//W3C//DTD SVG 1.1//EN" "http://www.w3.org/Graphics/SVG/1.1/DTD/svg11.dtd"><svg t="1642371493751" class="icon" viewBox="0 0 1024 1024" version="1.1" xmlns="http://www.w3.org/2000/svg" p-id="2376" xmlns:xlink="http://www.w3.org/1999/xlink" width="256" height="256"><defs><style type="text/css"></style></defs><path d="M724 458.67s-55.333-42.667-76-133.333c0 0-35.333 26-41.333 79.333 0 0-4.001 44.667 28.666 72.667 0 0 16 23.334 18 41.334 0 0-62-51.334-77.333-115.334 0 0-14.001-32.667 13.333-116.667 0 0-77.333 48-89.333 103.333 0 0-7.69 35.452 27.333 69.333 0 0-46.667-26.666-45.333-73.333 0 0-1.334-44 71.333-101.333 0 0 34-25.333 6.667-80.667 0 0-42-73.342-64-88.004 0 0 10 56-77 155 0 0-27 39-28 82 0 0-6 77 121 120 0 0 153 46 160 139 0 0 27 84-69 132 0 0-91 46-159-9 0 0-43.666-60.666 27.667-108.333 0 0-82-25.666-101 48.667 0 0-7.667 52.667 64.667 85 0 0 84 42.034 185 1.684S744.998 665.667 749.331 621c0 0 9-44-22-109 0 0 75 39.334 74 105.667 0 0 6.334 56.994-93.333 112.661S644.666 756.667 512 848.667c0 0-85-57.917-222-126.167 0 0-66.667-34.166-71.667-105.166 0 0-7-66.333 81.333-118.667 0 0-52.667 57.667-43.667 113 0 0 3.667 75.167 118.5 126.333 0 0-58.5-50.001-39.75-128.501 0 0 25.53-116.166 175.057-122.166 0 0-162.141-48.661-158.807-154.995 0 0-17 44.323-96 138.323 0 0-54 62.004-71 128.004 0 0-16 59.333 9 88.333 0 0 20 35.5 122.5 89 0 0 73 37 196.5 134.5 0 0 43.333-53.166 197.333-137.166 0 0 101.333-46 120-128.667 0.001 0.002 21.335-91.328-105.332-185.995z" p-id="2377"></path><path d="M623.5 634c-3.5-75-66.5-97-66.5-97-118.5-36-150.5 61.5-150.5 61.5C507 553.5 545 626 545 626c28 42-5 86-5 86 82-26 83.5-78 83.5-78z" p-id="2378"></path></svg>